<svg width="948" height="245" viewBox="0 0 948 245" fill="none" xmlns="http://www.w3.org/2000/svg">
<path d="M36.2997 0C33.6653 0 31.4278 1.91244 31.0159 4.51653L0.522691 197.896C0.41189 198.602 0.455427 199.324 0.65026 200.012C0.845092 200.7 1.18669 201.338 1.65143 201.881C2.11617 202.425 2.69291 202.861 3.34234 203.16C3.99177 203.459 4.69839 203.614 5.41342 203.614H41.5759C44.2064 203.614 46.4477 201.698 46.8597 199.098L55.8171 142.31C56.2253 139.71 58.4666 137.794 61.101 137.794H93.9789C132.394 137.794 165.004 109.765 170.96 71.7845C176.966 33.4828 147.044 0.0831495 104.634 0H36.2997ZM71.4531 43.1697H97.7585C119.415 43.1697 126.468 55.9483 124.238 70.0799C122.008 84.2418 111.055 94.6733 90.1051 94.6733H63.3307L71.4531 43.1697ZM244.51 56.3149C235.379 56.3489 224.872 58.2198 213.076 63.1332C186.018 74.4113 173.024 97.7196 167.506 114.712C167.506 114.712 149.942 166.556 189.624 195.039C189.624 195.039 226.425 222.459 267.852 193.349L267.138 197.896C267.027 198.602 267.071 199.323 267.265 200.01C267.459 200.698 267.8 201.335 268.264 201.878C268.728 202.422 269.304 202.858 269.952 203.158C270.601 203.457 271.307 203.613 272.021 203.614H306.35C308.985 203.614 311.222 201.698 311.634 199.098L332.516 66.6708C332.628 65.9645 332.586 65.2423 332.392 64.5539C332.198 63.8656 331.857 63.2274 331.393 62.6832C330.929 62.1391 330.353 61.7019 329.704 61.4018C329.055 61.1018 328.348 60.9458 327.633 60.9448H293.304C290.669 60.9448 288.428 62.861 288.02 65.4614L286.897 72.5895C286.897 72.5895 271.908 56.2128 244.51 56.3149ZM245.632 98.1429C249.574 98.1429 253.18 98.6872 256.415 99.7265C271.227 104.481 279.625 118.711 277.195 134.135C274.198 153.127 258.623 167.112 238.648 167.112C234.71 167.112 231.104 166.571 227.865 165.532C213.057 160.777 204.606 146.547 207.036 131.123C210.033 112.131 225.658 98.1429 245.632 98.1429Z" fill="white"/>
<path d="M530.661 0C528.027 0 525.789 1.91244 525.377 4.51653L494.884 197.896C494.773 198.602 494.817 199.324 495.012 200.012C495.206 200.7 495.548 201.338 496.013 201.881C496.477 202.425 497.054 202.861 497.704 203.16C498.353 203.459 499.06 203.614 499.775 203.614H535.937C538.568 203.614 540.809 201.698 541.221 199.098L550.178 142.31C550.587 139.71 552.828 137.794 555.462 137.794H588.34C626.755 137.794 659.361 109.765 665.314 71.7845C671.324 33.4828 641.405 0.0831495 598.995 0H530.661ZM565.814 43.1697H592.12C613.776 43.1697 620.829 55.9483 618.599 70.0799C616.369 84.2418 605.42 94.6733 584.466 94.6733H557.692L565.814 43.1697ZM738.867 56.3149C729.736 56.3489 719.229 58.2198 707.433 63.1332C680.375 74.4113 667.381 97.7196 661.863 114.712C661.863 114.712 644.307 166.556 683.989 195.039C683.989 195.039 720.782 222.459 762.214 193.349L761.499 197.896C761.388 198.602 761.432 199.324 761.627 200.012C761.822 200.7 762.163 201.338 762.628 201.881C763.093 202.425 763.67 202.861 764.319 203.16C764.968 203.459 765.675 203.614 766.39 203.614H800.716C803.35 203.614 805.587 201.698 805.999 199.098L826.889 66.6708C827.001 65.9638 826.958 65.241 826.764 64.5521C826.57 63.8632 826.228 63.2246 825.764 62.6804C825.299 62.1361 824.721 61.6991 824.071 61.3995C823.421 61.0999 822.714 60.9447 821.998 60.9448H787.669C785.034 60.9448 782.793 62.861 782.385 65.4614L781.262 72.5895C781.262 72.5895 766.265 56.2128 738.867 56.3149ZM739.99 98.1429C743.932 98.1429 747.538 98.6872 750.773 99.7265C765.585 104.481 773.983 118.711 771.553 134.135C768.556 153.127 752.98 167.112 733.005 167.112C729.067 167.112 725.462 166.571 722.222 165.532C707.414 160.777 698.963 146.547 701.394 131.123C704.391 112.131 720.015 98.1429 739.99 98.1429Z" fill="white"/>
<path d="M348.806 60.9452C346.085 60.9452 344.149 63.6022 344.981 66.1912L382.617 182.982L348.586 238.02C346.935 240.692 348.855 244.142 351.996 244.142H392.217C393.368 244.141 394.498 243.844 395.5 243.279C396.502 242.713 397.34 241.899 397.936 240.915L503.048 67.0302C504.662 64.3581 502.735 60.9414 499.613 60.9414H459.395C458.233 60.9424 457.092 61.2458 456.083 61.8216C455.075 62.3975 454.233 63.2261 453.642 64.2258L412.268 134.079L391.265 64.7436C390.581 62.4872 388.498 60.9414 386.144 60.9414L348.806 60.9452Z" fill="white"/>
<path d="M865.893 0C863.263 0 861.022 1.91622 860.61 4.51653L830.109 197.888C829.997 198.595 830.04 199.318 830.234 200.007C830.428 200.696 830.769 201.334 831.234 201.879C831.699 202.423 832.276 202.86 832.926 203.16C833.576 203.459 834.284 203.614 835 203.614H871.162C873.793 203.614 876.034 201.698 876.446 199.098L906.939 5.71842C907.05 5.01266 907.006 4.2913 906.812 3.60387C906.618 2.91644 906.277 2.27922 905.813 1.73595C905.349 1.19269 904.773 0.756247 904.124 0.456595C903.476 0.156944 902.77 0.00118638 902.056 0H865.893Z" fill="white"/>
<path d="M929.483 3.91406V16H927.001V3.91406H929.483ZM933.202 3.91406V5.86475H923.34V3.91406H933.202Z" fill="white"/>
<path d="M935.758 3.91406H937.867L940.971 12.7876L944.076 3.91406H946.184L941.818 16H940.125L935.758 3.91406ZM934.621 3.91406H936.721L937.103 12.5635V16H934.621V3.91406ZM945.221 3.91406H947.33V16H944.839V12.5635L945.221 3.91406Z" fill="white"/>
</svg>
